<mxfile host="app.diagrams.net" modified="2022-03-29T17:34:27.575Z" agent="5.0 (Macintosh; Intel Mac OS X 10_15_7) AppleWebKit/537.36 (KHTML, like Gecko) Chrome/99.0.4844.83 Safari/537.36" etag="Y1ZCq6_e9mzMODN-pNbY" version="17.2.4" type="github">
  <diagram id="7ZnshzVg9m8klxwKha5z" name="Page-1">
    <mxGraphModel dx="1384" dy="975" grid="1" gridSize="10" guides="1" tooltips="1" connect="1" arrows="1" fold="1" page="1" pageScale="1" pageWidth="850" pageHeight="1100" math="0" shadow="0">
      <root>
        <mxCell id="0" />
        <mxCell id="1" parent="0" />
        <mxCell id="ju0JcHlZOjDKnd_1PNDf-21" value="" style="whiteSpace=wrap;html=1;aspect=fixed;" vertex="1" parent="1">
          <mxGeometry y="80" width="850" height="850" as="geometry" />
        </mxCell>
        <mxCell id="ju0JcHlZOjDKnd_1PNDf-22" value="&lt;font style=&quot;font-size: 24px&quot; face=&quot;Comic Sans MS&quot;&gt;GAME OVER&lt;br&gt;&lt;br&gt;YOU LOST AFTER x TIME&lt;/font&gt;" style="ellipse;shape=cloud;whiteSpace=wrap;html=1;fillColor=#f5f5f5;fontColor=#333333;strokeColor=#666666;" vertex="1" parent="1">
          <mxGeometry x="133" y="190" width="585" height="390" as="geometry" />
        </mxCell>
        <mxCell id="ju0JcHlZOjDKnd_1PNDf-25" value="" style="shape=image;html=1;verticalAlign=top;verticalLabelPosition=bottom;labelBackgroundColor=#ffffff;imageAspect=0;aspect=fixed;image=https://cdn0.iconfinder.com/data/icons/business-and-education-1/512/128_bomb_explosive_explosion-128.png" vertex="1" parent="1">
          <mxGeometry x="361" y="720" width="128" height="128" as="geometry" />
        </mxCell>
        <mxCell id="ju0JcHlZOjDKnd_1PNDf-26" value="" style="endArrow=none;html=1;rounded=0;entryX=0.55;entryY=0.95;entryDx=0;entryDy=0;entryPerimeter=0;exitX=0.5;exitY=0;exitDx=0;exitDy=0;" edge="1" parent="1" source="ju0JcHlZOjDKnd_1PNDf-25" target="ju0JcHlZOjDKnd_1PNDf-22">
          <mxGeometry width="50" height="50" relative="1" as="geometry">
            <mxPoint x="400" y="520" as="sourcePoint" />
            <mxPoint x="450" y="470" as="targetPoint" />
          </mxGeometry>
        </mxCell>
        <mxCell id="ju0JcHlZOjDKnd_1PNDf-27" value="" style="endArrow=none;html=1;rounded=0;entryX=0.45;entryY=0.941;entryDx=0;entryDy=0;entryPerimeter=0;exitX=0.5;exitY=0;exitDx=0;exitDy=0;" edge="1" parent="1" source="ju0JcHlZOjDKnd_1PNDf-25" target="ju0JcHlZOjDKnd_1PNDf-22">
          <mxGeometry width="50" height="50" relative="1" as="geometry">
            <mxPoint x="400" y="520" as="sourcePoint" />
            <mxPoint x="450" y="470" as="targetPoint" />
          </mxGeometry>
        </mxCell>
      </root>
    </mxGraphModel>
  </diagram>
</mxfile>
